<svg enable-background="new 0 0 70 70" version="1.1" viewBox="0 0 70 70" xml:space="preserve" xmlns="http://www.w3.org/2000/svg"><path d="m35 0c-19.3 0-35 15.7-35 35s15.7 35 35 35 35-15.7 35-35-15.7-35-35-35zm-13.3 13.5c4.7 0 8.4 3.7 8.4 8.4s-3.7 8.4-8.4 8.4-8.4-3.7-8.4-8.4c0.1-4.7 3.8-8.4 8.4-8.4zm0 43c-4.7 0-8.4-3.7-8.4-8.4s3.7-8.4 8.4-8.4 8.4 3.7 8.4 8.4c-0.1 4.7-3.8 8.4-8.4 8.4zm9.7-17.9c-2-2-2-5.3 0-7.3s5.3-2 7.3 0 2 5.3 0 7.3-5.3 2.1-7.3 0zm16.9 17.9c-4.7 0-8.4-3.7-8.4-8.4s3.7-8.4 8.4-8.4 8.4 3.7 8.4 8.4c-0.1 4.7-3.8 8.4-8.4 8.4zm0-26.4c-4.7 0-8.4-3.7-8.4-8.4s3.7-8.4 8.4-8.4 8.4 3.7 8.4 8.4c-0.1 4.7-3.8 8.4-8.4 8.4z" fill="#ffffff"/></svg>