<?xml version="1.0" encoding="utf-8"?>
<!-- Generator: Adobe Illustrator 19.0.0, SVG Export Plug-In . SVG Version: 6.00 Build 0)  -->
<svg version="1.1" id="Layer_1" xmlns="http://www.w3.org/2000/svg" xmlns:xlink="http://www.w3.org/1999/xlink" x="0px" y="0px"
	 viewBox="0 0 70 70" style="enable-background:new 0 0 70 70;" xml:space="preserve">
<path id="XMLID_567_" fill="#E8511D" d="M35,0C15.7,0,0,15.7,0,35s15.7,35,35,35s35-15.7,35-35S54.3,0,35,0z M21.7,13.5
	c4.7,0,8.4,3.7,8.4,8.4s-3.7,8.4-8.4,8.4s-8.4-3.7-8.4-8.4C13.4,17.2,17.1,13.5,21.7,13.5z M21.7,56.5c-4.7,0-8.4-3.7-8.4-8.4
	s3.7-8.4,8.4-8.4s8.4,3.7,8.4,8.4C30,52.8,26.3,56.5,21.7,56.5z M31.4,38.6c-2-2-2-5.3,0-7.3s5.3-2,7.3,0s2,5.3,0,7.3
	S33.4,40.7,31.4,38.6z M48.3,56.5c-4.7,0-8.4-3.7-8.4-8.4s3.7-8.4,8.4-8.4s8.4,3.7,8.4,8.4C56.6,52.8,52.9,56.5,48.3,56.5z
	 M48.3,30.1c-4.7,0-8.4-3.7-8.4-8.4s3.7-8.4,8.4-8.4s8.4,3.7,8.4,8.4C56.6,26.4,52.9,30.1,48.3,30.1z"/>
</svg>
